<svg xmlns="http://www.w3.org/2000/svg" xmlns:xlink="http://www.w3.org/1999/xlink" id="Layer_1" x="0px" y="0px" viewBox="0 0 100 100" style="enable-background:new 0 0 100 100;" xml:space="preserve">
<circle style="fill:#D6FFDE;" cx="59.812" cy="40.522" r="40.188"></circle>
<g>
	<path style="fill:#212121;" d="M55.57,71.663h-1.308c4.23-4.175,6.857-9.98,6.857-16.392V47.34   c0-12.68-10.274-22.996-22.904-22.996S15.311,34.659,15.311,47.34v7.931c0,6.412,2.627,12.217,6.857,16.392H20.86   c-11.289,0-20.473,9.168-20.473,20.438v5.674c0,1.224,0.992,2.217,2.217,2.217c1.224,0,2.217-0.993,2.217-2.217v-5.674   c0-8.825,7.196-16.005,16.04-16.005h7.602c0.013,0,0.026-0.002,0.039-0.002c2.951,1.394,6.242,2.174,9.713,2.174   c3.471,0,6.763-0.78,9.713-2.174c0.013,0.001,0.026,0.002,0.039,0.002h7.602c8.845,0,16.04,7.18,16.04,16.005v5.683   c0,1.224,0.992,2.216,2.216,2.216c1.224,0,2.216-0.992,2.216-2.216v-5.683C76.043,80.831,66.859,71.663,55.57,71.663L55.57,71.663z    M38.215,28.776c7.714,0,14.337,4.778,17.098,11.543c-1.198,0.356-2.441,0.538-3.71,0.538c-4.708,0-9.065-2.554-11.374-6.664   c-0.392-0.699-1.132-1.131-1.933-1.131c-0.801,0-1.54,0.432-1.933,1.131c-2.308,4.11-6.666,6.664-11.374,6.664   c-1.321,0-2.612-0.198-3.854-0.582C23.906,33.534,30.518,28.776,38.215,28.776L38.215,28.776z M19.744,55.271V47.34   c0-0.947,0.072-1.879,0.209-2.788c1.627,0.49,3.315,0.739,5.037,0.739c5.168,0,10.021-2.296,13.307-6.153   c3.286,3.857,8.14,6.153,13.307,6.153c1.665,0,3.302-0.233,4.881-0.693c0.132,0.895,0.202,1.811,0.202,2.743v7.93   c0,10.236-8.286,18.564-18.471,18.564S19.744,65.507,19.744,55.271L19.744,55.271z M19.744,55.271"></path>
	<path style="fill:#212121;" d="M53.287,55.67c0-3.666-2.983-6.65-6.65-6.65c-2.446,0-4.586,1.328-5.741,3.3   c-0.838-0.343-1.745-0.526-2.682-0.526c-0.925,0-1.834,0.188-2.677,0.534c-1.154-1.976-3.296-3.309-5.746-3.309   c-3.666,0-6.65,2.983-6.65,6.65c0,3.666,2.983,6.65,6.65,6.65c3.188,0,5.857-2.255,6.501-5.254   c0.493-0.527,1.195-0.837,1.922-0.837c0.737,0,1.425,0.303,1.922,0.837c0.643,2.999,3.313,5.255,6.501,5.255   C50.304,62.319,53.287,59.336,53.287,55.67L53.287,55.67z M29.792,57.886c-1.222,0-2.217-0.994-2.217-2.216   c0-1.222,0.994-2.217,2.217-2.217c1.222,0,2.217,0.994,2.217,2.217C32.009,56.892,31.014,57.886,29.792,57.886L29.792,57.886z    M46.638,57.886c-1.222,0-2.217-0.994-2.217-2.216c0-1.222,0.994-2.217,2.217-2.217c1.222,0,2.217,0.994,2.217,2.217   C48.854,56.892,47.86,57.886,46.638,57.886L46.638,57.886z M46.638,57.886"></path>
</g>
<g>
</g>
<g>
</g>
<g>
</g>
<g>
</g>
<g>
</g>
<g>
</g>
</svg>