<svg xmlns="http://www.w3.org/2000/svg" xmlns:xlink="http://www.w3.org/1999/xlink" id="Layer_1" x="0px" y="0px" viewBox="0 0 100 100" style="enable-background:new 0 0 100 100;" xml:space="preserve">
<g>
	<circle style="fill:#D6F7FF;" cx="59.812" cy="40.522" r="40.188"></circle>
	<g>
		<path style="fill:#212121;" d="M61.487,20.597c-5.925-5.925-13.773-9.188-22.099-9.188c-8.325,0-16.173,3.263-22.099,9.188    c-5.925,5.925-9.188,13.773-9.188,22.099v6.47L0.303,63.803c-0.426,0.802-0.402,1.769,0.066,2.547    c0.467,0.778,1.308,1.254,2.217,1.254h5.516v6.378c0,8.935,7.269,16.205,16.205,16.205h9.652v6.894    c0,1.428,1.158,2.586,2.586,2.586c1.428,0,2.586-1.157,2.586-2.586V87.6c0-1.428-1.157-2.586-2.586-2.586H24.306    c-6.085,0-11.033-4.949-11.033-11.032v-8.964c0-1.428-1.158-2.586-2.586-2.586H6.892l6.076-11.405    c0.2-0.374,0.304-0.792,0.304-1.216v-7.117c0-14.4,11.716-26.115,26.115-26.115s26.115,11.716,26.115,26.115v54.386    c0,1.428,1.158,2.586,2.586,2.586c1.428,0,2.586-1.157,2.586-2.586V42.695C70.675,34.37,67.413,26.522,61.487,20.597    L61.487,20.597z M61.487,20.597"></path>
		<path style="fill:#212121;" d="M50.245,29.835h-0.007c-0.504-1.974-1.543-3.781-3.035-5.239c-2.112-2.063-4.903-3.2-7.857-3.2    c-2.954,0-5.744,1.137-7.857,3.2c-1.492,1.458-2.53,3.264-3.035,5.239h-0.007c-5.275,0-9.567,4.292-9.567,9.567    c0,5.275,4.292,9.567,9.567,9.567h5.567l-2.642,5.386c-0.393,0.802-0.345,1.749,0.128,2.507c0.472,0.758,1.301,1.218,2.194,1.218    h4.421l-1.841,3.802c-0.621,1.285-0.083,2.833,1.202,3.454c0.363,0.176,0.746,0.259,1.124,0.259c0.961,0,1.883-0.537,2.33-1.46    l3.635-7.514c0.388-0.801,0.336-1.745-0.137-2.499c-0.472-0.754-1.3-1.212-2.191-1.212h-4.395l1.932-3.939h10.471    c5.275,0,9.567-4.292,9.567-9.567S55.52,29.835,50.245,29.835L50.245,29.835z M50.245,43.798H28.446    c-2.423,0-4.396-1.972-4.396-4.396c0-2.423,1.972-4.396,4.396-4.396h2.244c1.402,0,2.55-1.119,2.585-2.521    c0.081-3.263,2.804-5.917,6.07-5.917c3.266,0,5.99,2.655,6.071,5.917c0.035,1.402,1.181,2.521,2.585,2.521h2.243    c2.424,0,4.396,1.972,4.396,4.396C54.64,41.826,52.669,43.798,50.245,43.798L50.245,43.798z M50.245,43.798"></path>
	</g>
</g>
<g>
</g>
<g>
</g>
<g>
</g>
<g>
</g>
<g>
</g>
<g>
</g>
</svg>