<svg xmlns="http://www.w3.org/2000/svg" xmlns:xlink="http://www.w3.org/1999/xlink" id="Layer_1" x="0px" y="0px" viewBox="0 0 100 100" style="enable-background:new 0 0 100 100;" xml:space="preserve">
<circle style="fill:#D6F7FF;" cx="59.812" cy="40.522" r="40.188"></circle>
<g>
	<path style="fill:#212121;" d="M52.248,41.847h-7.151c-1.151,0-2.083,0.932-2.083,2.083c0,1.151,0.932,2.083,2.083,2.083h2.123   l-2.932,2.932c-1.867-1.392-4.179-2.217-6.681-2.217c-2.502,0-4.815,0.825-6.681,2.217l-2.932-2.932h2.123   c1.151,0,2.083-0.932,2.083-2.083c0-1.151-0.932-2.083-2.083-2.083h-7.151c-1.151,0-2.083,0.932-2.083,2.083v7.152   c0,1.15,0.932,2.083,2.083,2.083c1.15,0,2.083-0.933,2.083-2.083v-2.123l3.055,3.055c-1.071,1.717-1.692,3.741-1.692,5.91   c0,5.461,3.931,10.019,9.113,10.998v4.291c0,1.151,0.932,2.083,2.083,2.083c1.15,0,2.083-0.932,2.083-2.083v-4.291   c5.181-0.979,9.113-5.537,9.113-10.998c0-2.168-0.622-4.193-1.693-5.91l3.056-3.055v2.123c0,1.15,0.932,2.083,2.083,2.083   c1.15,0,2.083-0.933,2.083-2.083v-7.152C54.331,42.779,53.399,41.847,52.248,41.847L52.248,41.847z M37.607,50.893   c1.351,0,2.613,0.384,3.686,1.046l-3.686,3.686l-3.685-3.686C34.994,51.277,36.257,50.893,37.607,50.893L37.607,50.893z    M30.577,57.923c0-1.009,0.216-1.968,0.6-2.836l4.347,4.348v5.204C32.662,63.748,30.577,61.074,30.577,57.923L30.577,57.923z    M44.637,57.923c0,3.151-2.084,5.825-4.947,6.715v-5.204l4.347-4.348C44.422,55.955,44.637,56.914,44.637,57.923L44.637,57.923z    M44.637,57.923"></path>
	<path style="fill:#212121;" d="M37.136,20.021c-17.199,0-31.191,13.992-31.191,31.19v4.098L1.288,70.708   c-0.364,1.204,0.288,2.483,1.477,2.895l7.936,2.749v11.024c0,1.296,1.051,2.345,2.345,2.345h11.924v8.006   c0,1.296,1.05,2.345,2.345,2.345h28.539c1.295,0,2.345-1.05,2.345-2.345V74.213c6.449-5.907,10.126-14.229,10.126-23.002   C68.326,34.013,54.334,20.021,37.136,20.021L37.136,20.021z M54.332,71.374c-0.522,0.445-0.822,1.098-0.822,1.783v22.225H29.661   v-8.006c0-1.295-1.05-2.345-2.345-2.345H15.391V74.682c0-0.999-0.633-1.889-1.577-2.216l-7.384-2.559l4.104-13.573   c0.067-0.221,0.1-0.449,0.1-0.679v-4.445c0-14.612,11.888-26.5,26.501-26.5s26.5,11.888,26.5,26.5   C63.636,58.976,60.245,66.326,54.332,71.374L54.332,71.374z M54.332,71.374"></path>
</g>
<g>
</g>
<g>
</g>
<g>
</g>
<g>
</g>
<g>
</g>
<g>
</g>
</svg>