<svg xmlns="http://www.w3.org/2000/svg" xmlns:xlink="http://www.w3.org/1999/xlink" id="Layer_1" x="0px" y="0px" viewBox="0 0 100 100" style="enable-background:new 0 0 100 100;" xml:space="preserve">
<circle style="fill:#FFD6D6;" cx="59.812" cy="40.522" r="40.188"></circle>
<g>
	<path style="fill:#212121;" d="M61.061,23.26c-6.185,0-12.088,2.087-16.859,5.921c-4.771-3.834-10.674-5.921-16.859-5.921   c-14.864,0-26.957,12.093-26.957,26.957c0,9.903,6.223,20.541,18.497,31.619c9.413,8.495,19.592,14.696,22.937,16.734   c0.727,0.442,1.523,0.908,2.39,0.974c0.917,0.068,1.605-0.505,2.348-0.953c3.345-2.02,13.526-8.169,22.946-16.648   c12.284-11.057,18.512-21.73,18.512-31.725C88.018,35.353,75.925,23.26,61.061,23.26L61.061,23.26z M22.325,78.024   C11.175,67.962,5.521,58.605,5.521,50.217c0-12.033,9.79-21.822,21.822-21.822c5.435,0,10.601,1.992,14.618,5.621l4.576,14.359   l-8.045,13.403c-0.488,0.813-0.488,1.829,0,2.642l8.086,13.469L42.6,93.024C38.294,90.348,30.015,84.966,22.325,78.024   L22.325,78.024z M66.071,78.125c-6.383,5.745-13.165,10.399-17.75,13.334l3.5-13.31c0.175-0.67,0.074-1.382-0.282-1.974   l-7.851-13.076l7.85-13.075c0.38-0.633,0.469-1.399,0.245-2.101l-4.629-14.523c3.906-3.238,8.788-5.004,13.907-5.004   c12.033,0,21.822,9.79,21.822,21.822C82.883,58.694,77.226,68.084,66.071,78.125L66.071,78.125z M66.071,78.125"></path>
</g>
<g>
</g>
<g>
</g>
<g>
</g>
<g>
</g>
<g>
</g>
<g>
</g>
</svg>