<svg xmlns="http://www.w3.org/2000/svg" xmlns:xlink="http://www.w3.org/1999/xlink" id="Layer_1" x="0px" y="0px" viewBox="0 0 100 100" style="enable-background:new 0 0 100 100;" xml:space="preserve">
<circle style="fill:#CBDBFF;" cx="59.812" cy="40.522" r="40.188"></circle>
<g>
	<path style="fill:#212121;" d="M76.847,88.244l-4.03-4.03c-1.306-1.305-3.046-2.024-4.902-2.024c-0.001,0,0,0-0.001,0   c-1.052,0-2.068,0.232-2.988,0.67l-4.143-4.143c2.731-3.438,4.365-7.784,4.365-12.505c0-4.824-1.706-9.257-4.544-12.728   c0.095-0.629,0.145-1.269,0.145-1.908c0-4.391-2.244-8.393-5.862-10.692c0.34-1.729,0.136-3.536-0.619-5.186   c-0.822-1.8-2.213-3.228-3.94-4.088c-0.25-2.554-1.336-4.93-3.141-6.824c-2.203-2.312-5.177-3.585-8.372-3.585   c-3.246,0-6.289,1.368-8.442,3.661c-2.153-2.293-5.196-3.661-8.442-3.661c-3.195,0-6.168,1.273-8.372,3.585   c-1.805,1.894-2.891,4.27-3.141,6.824c-1.727,0.86-3.118,2.288-3.94,4.088c-0.753,1.65-0.958,3.457-0.618,5.186   C2.244,43.183,0,47.184,0,51.576c0,4.392,2.244,8.392,5.862,10.692c-0.34,1.729-0.136,3.536,0.618,5.186   c0.822,1.799,2.214,3.228,3.94,4.088c0.25,2.554,1.336,4.93,3.141,6.825c2.204,2.311,5.177,3.584,8.372,3.584   c2.811,0,5.518-1.041,7.609-2.86c3.697,4.434,9.26,7.26,15.47,7.26c4.721,0,9.068-1.634,12.505-4.365l4.143,4.143   c-0.438,0.92-0.67,1.936-0.67,2.989c0,1.855,0.719,3.596,2.024,4.902l4.03,4.03c1.306,1.306,3.046,2.025,4.902,2.025   c1.855,0,3.596-0.719,4.902-2.024c1.306-1.306,2.025-3.047,2.025-4.902C78.872,91.292,78.153,89.551,76.847,88.244L76.847,88.244z    M21.932,77.329c-1.918,0-3.704-0.765-5.027-2.152c-1.324-1.39-2.003-3.213-1.911-5.134c0.052-1.095-0.672-2.076-1.735-2.349   c-1.143-0.293-2.083-1.081-2.575-2.161c-0.262-0.574-0.379-1.19-0.353-1.799c-0.004,0.266,3.263,0.103,3.446,0.081   c0.101-0.012,0.198-0.032,0.295-0.056c0.068-0.018,0.974,0.914,1.109,1.013c0.43,0.314,0.896,0.579,1.386,0.788   c1.666,0.707,4.307,0.867,4.556-1.541c0.132-1.269-0.791-2.405-2.06-2.536c-1.202-0.125-2.108-1.13-2.108-2.338   c0-0.331,0.068-0.654,0.204-0.957c0.52-1.165-0.003-2.531-1.169-3.051c-1.165-0.52-2.531,0.003-3.051,1.168   c-0.401,0.9-0.605,1.856-0.605,2.84c0,0.046,0.002,0.09,0.003,0.135c-0.002,0-0.003,0-0.005,0c-3.885,0-7.172-2.908-7.646-6.764   c-0.005-0.039-0.013-0.076-0.02-0.114c-0.027-0.272-0.043-0.548-0.043-0.826c0-2.77,1.406-5.295,3.676-6.761   c0.382,0.33,0.793,0.627,1.231,0.881c0.089,0.052,0.18,0.097,0.272,0.136c-0.388,1.111-0.501,2.334-0.272,3.571   c0.205,1.113,1.176,1.892,2.27,1.892c0.139,0,0.28-0.013,0.421-0.039c1.255-0.231,2.085-1.436,1.854-2.691   c-0.219-1.188,0.49-2.34,1.649-2.681c0.319-0.094,0.647-0.119,0.976-0.074c1.264,0.17,2.429-0.717,2.6-1.981   c0.171-1.264-0.716-2.429-1.981-2.599c-0.976-0.132-1.95-0.059-2.896,0.219c-0.682,0.201-1.311,0.497-1.877,0.869   c-0.18-0.243-0.412-0.454-0.69-0.616c-1.472-0.857-1.866-2.558-1.169-4.084c0.552-1.21,1.648-2.013,3.006-2.013   c0.734,0,1.438,0.225,2.035,0.651c0.407,0.289,0.875,0.428,1.338,0.428c0.722,0,1.434-0.338,1.885-0.971   c0.74-1.04,0.497-2.482-0.543-3.223c-0.973-0.692-2.068-1.155-3.223-1.369c0.282-1.169,0.867-2.248,1.723-3.146   c1.324-1.387,3.109-2.152,5.027-2.152c2.468,0,4.74,1.317,5.981,3.411c-0.307,0.967-0.49,1.974-0.533,2.994   c-0.01,0.23,0.015,0.453,0.069,0.665c-1.05,0.827-1.87,1.963-2.313,3.324c-0.395,1.213,0.269,2.518,1.483,2.912   c0.237,0.078,0.478,0.115,0.715,0.115c0.974,0,1.88-0.621,2.197-1.597c0.374-1.149,1.547-1.824,2.728-1.57   c0.324,0.069,0.625,0.204,0.893,0.4c1.03,0.753,2.476,0.528,3.229-0.503c0.753-1.03,0.529-2.476-0.502-3.229   c-0.796-0.582-1.687-0.981-2.65-1.187c-0.371-0.08-0.742-0.127-1.11-0.146c-0.038-0.002,0.449-1.452,0.507-1.58   c0.246-0.534,0.565-1.013,0.921-1.479c1.246-1.629,3.229-2.53,5.27-2.53c1.918,0,3.704,0.765,5.027,2.152   c0.85,0.891,1.432,1.962,1.717,3.122c-1.205,0.202-2.349,0.673-3.361,1.393c-1.04,0.74-1.283,2.182-0.543,3.222   c0.451,0.634,1.163,0.972,1.885,0.972c0.464,0,0.931-0.139,1.338-0.428c0.598-0.425,1.301-0.651,2.035-0.651   c1.423,0,2.559,0.721,3.15,2.013c0.494,1.083,0.476,2.31-0.052,3.366c-0.285,0.572-0.321,1.236-0.099,1.836   c0.222,0.599,0.683,1.079,1.272,1.326c2.243,0.942,3.894,2.809,4.584,5.052c-3.115-1.977-6.806-3.123-10.76-3.123   c-11.104,0-20.138,9.033-20.138,20.138c0,3.213,0.757,6.252,2.101,8.95C25.667,76.548,23.871,77.329,21.932,77.329L21.932,77.329z    M45.011,81.728c-8.556,0-15.516-6.961-15.516-15.516c0-8.556,6.96-15.517,15.516-15.517c8.556,0,15.516,6.961,15.516,15.517   C60.527,74.767,53.567,81.728,45.011,81.728L45.011,81.728z M73.579,94.78c-0.432,0.433-1.012,0.672-1.634,0.672   c-0.62,0-1.201-0.238-1.634-0.672l-4.031-4.03c-0.432-0.433-0.671-1.013-0.671-1.634c0-0.621,0.238-1.201,0.671-1.634   c0.433-0.432,1.013-0.671,1.634-0.671c0.62,0,1.201,0.238,1.634,0.671l4.03,4.031c0.433,0.433,0.672,1.013,0.672,1.634   C74.251,93.767,74.013,94.348,73.579,94.78L73.579,94.78z M73.579,94.78"></path>
</g>
<g>
</g>
<g>
</g>
<g>
</g>
<g>
</g>
<g>
</g>
<g>
</g>
</svg>