<svg xmlns="http://www.w3.org/2000/svg" xmlns:xlink="http://www.w3.org/1999/xlink" id="Layer_1" x="0px" y="0px" viewBox="0 0 100 100" style="enable-background:new 0 0 100 100;" xml:space="preserve">
<circle style="fill:#EBD6FF;" cx="59.812" cy="40.522" r="40.188"></circle>
<g>
	<g>
		<path style="fill:#212121;" d="M44.588,11.213c-10.217,0-19.409,4.47-25.725,11.556l-4.74-3.555v-4.826    c0-1.431-1.16-2.591-2.591-2.591c-1.431,0-2.591,1.161-2.591,2.591v0.939l-4.794-3.596c-1.144-0.859-2.769-0.626-3.628,0.518    c-0.858,1.146-0.626,2.769,0.518,3.628l4.83,3.623L4.5,19.91c-1.371,0.41-2.151,1.855-1.74,3.226    c0.337,1.123,1.367,1.849,2.482,1.849c0.246,0,0.497-0.035,0.744-0.11l5.037-1.507l4.691,3.517    c-3.533,5.409-5.59,11.865-5.59,18.792v4.528L4.979,67.219c-0.402,1.332,0.317,2.743,1.632,3.199l8.769,3.038v12.181    c0,1.432,1.16,2.591,2.591,2.591h13.176v8.847c0,1.432,1.16,2.591,2.591,2.591h31.534c1.43,0,2.591-1.16,2.591-2.591V71.093    c7.125-6.527,11.189-15.722,11.189-25.416C79.052,26.673,63.592,11.213,44.588,11.213L44.588,11.213z M63.589,67.955    c-0.577,0.492-0.909,1.213-0.909,1.971v24.558H36.329v-8.847c0-1.431-1.16-2.591-2.591-2.591H20.562V71.611    c0-1.104-0.699-2.087-1.743-2.448l-8.158-2.827l4.535-14.997c0.074-0.244,0.111-0.497,0.111-0.75v-4.911    c0-5.762,1.675-11.141,4.561-15.676l4.064,3.048c-2.191,3.595-3.454,7.815-3.454,12.325c0,13.096,10.655,23.75,23.75,23.75    c13.097,0,23.751-10.655,23.751-23.75c0-13.097-10.655-23.751-23.751-23.751c-6.726,0-12.808,2.811-17.133,7.32l-4.069-3.052    c5.356-5.832,13.04-9.494,21.564-9.494c16.146,0,29.281,13.135,29.281,29.281C73.87,54.257,70.123,62.377,63.589,67.955    L63.589,67.955z M33.615,40.311c-0.734,1.534-1.147,3.25-1.147,5.061c0,6.483,5.276,11.758,11.759,11.758    c6.484,0,11.759-5.275,11.759-11.758c0-6.484-5.275-11.759-11.759-11.759c-2.802,0-5.376,0.986-7.398,2.628l-5.551-4.163    c3.347-3.262,7.917-5.274,12.949-5.274c10.239,0,18.568,8.329,18.568,18.568c0,10.238-8.33,18.568-18.568,18.568    s-18.568-8.33-18.568-18.568c0-3.344,0.889-6.484,2.442-9.197L33.615,40.311z M42.672,47.104c0.466,0.35,1.011,0.518,1.553,0.518    c0.788,0,1.566-0.357,2.075-1.037c0.859-1.144,0.627-2.769-0.518-3.628l-4.568-3.426c0.903-0.468,1.927-0.734,3.013-0.734    c3.626,0,6.576,2.95,6.576,6.576c0,3.625-2.95,6.576-6.576,6.576c-3.625,0-6.576-2.951-6.576-6.576    c0-0.638,0.094-1.254,0.264-1.837L42.672,47.104z M42.672,47.104"></path>
	</g>
</g>
<g>
</g>
<g>
</g>
<g>
</g>
<g>
</g>
<g>
</g>
<g>
</g>
</svg>