<svg xmlns="http://www.w3.org/2000/svg" xmlns:xlink="http://www.w3.org/1999/xlink" id="Layer_1" x="0px" y="0px" viewBox="0 0 513 513" style="enable-background:new 0 0 513 513;" xml:space="preserve">
<path style="fill:#E3F8FF;" d="M437.546,75.454C389.187,27.095,324.89,0.463,256.5,0.463c-68.39,0-132.687,26.632-181.046,74.992  C27.095,123.813,0.463,188.11,0.463,256.5c0,68.39,26.632,132.687,74.992,181.046c48.359,48.358,112.656,74.991,181.046,74.991  c68.39,0,132.687-26.633,181.046-74.991c48.358-48.359,74.991-112.656,74.991-181.046  C512.537,188.11,485.905,123.813,437.546,75.454z M256.5,462.537c-113.609,0-206.038-92.428-206.038-206.037  S142.891,50.463,256.5,50.463S462.537,142.891,462.537,256.5S370.11,462.537,256.5,462.537z"></path>
<g>
</g>
<g>
</g>
<g>
</g>
<g>
</g>
<g>
</g>
<g>
</g>
</svg>