<svg version="1.1" id="Layer_1" xmlns="http://www.w3.org/2000/svg" xmlns:xlink="http://www.w3.org/1999/xlink" x="0px" y="0px"
	 width="100%" viewBox="0 0 193 233" enable-background="new 0 0 193 233" xml:space="preserve">
<path fill="#F3FDFD" opacity="1.000000" stroke="none" 
	d="
M194.000000,92.000000 
	C194.000000,139.666672 194.000000,186.833328 194.000000,234.000000 
	C129.666672,234.000000 65.333336,234.000000 1.000000,234.000000 
	C1.000000,156.333328 1.000000,78.666664 1.000000,1.000000 
	C65.333336,1.000000 129.666672,1.000000 194.000000,1.000000 
	C194.000000,31.166666 194.000000,61.333332 194.000000,92.000000 
M59.909336,195.300018 
	C57.603268,192.565430 57.403763,188.042191 53.270485,186.539368 
	C53.270485,191.766571 53.270485,196.383087 53.270485,200.999603 
	C53.723820,201.008347 54.177155,201.017090 54.630489,201.025833 
	C54.800510,198.155716 54.970531,195.285599 55.177605,191.789948 
	C56.703243,194.103775 57.762157,195.709763 58.975716,198.045303 
	C59.981430,199.161758 60.987144,200.278229 62.322456,201.760574 
	C62.322456,196.056427 62.322456,191.429123 62.322456,186.801819 
	C62.040012,186.823639 61.757565,186.845474 61.475121,186.867310 
	C60.983292,189.911606 60.491463,192.955887 59.909336,195.300018 
M124.204964,201.036407 
	C124.533203,201.055664 124.774521,200.919174 125.763916,200.547180 
	C126.788445,200.187332 128.101089,200.111221 128.785431,199.416367 
	C131.182724,196.982117 133.156952,196.537674 135.101685,199.877441 
	C135.438065,200.455109 136.437607,200.646606 137.943253,201.449951 
	C136.518921,196.915878 135.511017,193.300400 134.209473,189.793915 
	C133.777344,188.629684 132.590790,187.745499 131.749146,186.733276 
	C130.938843,187.805954 129.947632,188.789917 129.366592,189.974991 
	C128.720428,191.292877 128.656296,192.905701 127.967255,194.190918 
	C126.731834,196.495255 125.218445,198.650558 124.204964,201.036407 
M65.574753,16.845963 
	C56.286022,20.850128 51.926628,28.051199 51.834538,38.023521 
	C51.743423,47.890026 54.963696,56.618046 60.888115,64.422127 
	C67.987457,73.773911 77.321983,80.433823 87.567924,85.758789 
	C89.614937,86.822655 93.437447,86.598862 95.388466,85.338768 
	C102.625557,80.664558 109.917244,75.852829 116.265266,70.077972 
	C125.052368,62.084244 129.803787,51.764603 130.480637,39.655342 
	C131.379623,23.571692 117.491394,11.573477 102.682137,16.319225 
	C98.441231,17.678257 94.785568,20.863550 90.500854,23.427277 
	C84.165550,16.578426 76.191246,13.192736 65.574753,16.845963 
M30.753925,60.142960 
	C29.555372,62.267365 27.436880,64.343742 27.323013,66.524780 
	C26.906603,74.500732 27.722330,82.562515 27.005707,90.495468 
	C26.225597,99.131203 29.137321,105.333130 35.545418,110.991058 
	C40.245281,115.140717 46.956619,118.620193 45.238228,126.952370 
	C54.380428,126.952370 62.970291,126.952370 71.555603,126.952370 
	C72.970604,118.651604 72.136841,111.689301 64.992706,105.864258 
	C58.055286,100.207748 52.108257,93.328651 45.794888,86.918892 
	C43.538937,84.628494 41.112644,83.353325 38.455475,85.859924 
	C35.668106,88.489342 37.136742,90.876648 39.431141,93.087448 
	C42.424068,95.971329 45.306332,98.970055 48.236210,101.919357 
	C47.664719,102.475662 47.093227,103.031960 46.521736,103.588257 
	C42.698513,99.310234 38.820107,95.078873 35.116879,90.699379 
	C34.613163,90.103683 34.912128,88.763153 34.964272,87.774071 
	C35.346909,80.516121 35.797501,73.261589 36.149231,66.002228 
	C36.305542,62.776009 35.033722,60.508022 30.753925,60.142960 
M155.000473,90.464897 
	C154.999573,82.137512 155.240677,73.797623 154.811417,65.492378 
	C154.715500,63.637016 152.266586,61.903271 150.900986,60.113541 
	C149.301086,61.511272 146.429596,62.816303 146.319778,64.322662 
	C145.824951,71.110275 145.499084,78.027122 146.290436,84.758896 
	C147.091721,91.575195 141.436249,101.141373 133.033112,102.868385 
	C136.793533,99.084496 139.607849,96.172768 142.513367,93.355072 
	C144.702682,91.231895 146.603378,88.906578 144.003143,86.111732 
	C141.311844,83.219040 138.743500,84.577705 136.339996,87.021896 
	C129.801453,93.671112 123.589478,100.733406 116.451302,106.674683 
	C109.566177,112.405319 109.569969,119.231590 110.527168,126.793762 
	C119.481499,126.793762 128.192581,126.793762 137.371933,126.793762 
	C135.652817,121.605034 138.346893,118.583733 141.625092,115.724174 
	C143.628555,113.976562 145.234680,111.743484 147.334671,110.142059 
	C153.597183,105.366371 156.240845,99.236450 155.000473,90.464897 
M41.112938,142.183640 
	C42.682308,142.461502 44.249001,142.960236 45.821514,142.979340 
	C52.951546,143.065964 60.085209,143.124374 67.213829,142.991959 
	C77.699699,142.797165 76.332077,145.286926 76.622383,133.493088 
	C76.708519,129.994049 75.190041,129.352463 72.167885,129.401855 
	C63.878147,129.537323 55.584614,129.424118 47.292866,129.465347 
	C45.225590,129.475616 43.159370,129.697601 40.852760,129.836746 
	C40.852760,134.004333 40.852760,137.636063 41.112938,142.183640 
M113.649155,129.448334 
	C111.199837,129.448334 108.750519,129.448334 106.241188,129.448334 
	C106.241188,134.282486 106.241188,138.468216 106.241188,142.802124 
	C118.056610,142.802124 129.441345,142.802124 141.556702,142.802124 
	C141.556702,139.502823 141.391006,136.385010 141.602722,133.292999 
	C141.819977,130.119949 140.402298,129.345398 137.496933,129.400314 
	C129.873093,129.544357 122.244751,129.448669 113.649155,129.448334 
M88.705460,161.809509 
	C89.226051,155.636765 87.686150,152.581863 82.969421,152.072098 
	C78.596825,151.599518 74.132957,151.971313 69.644821,151.971313 
	C69.644821,160.431885 69.644821,168.526093 69.644821,176.730865 
	C72.120544,176.730865 74.352135,176.730865 76.743179,176.730865 
	C76.868042,174.010666 76.980064,171.570053 77.105881,168.829086 
	C83.233818,168.858383 80.475304,174.323502 82.389175,176.663940 
	C84.589897,176.663940 86.801651,176.663940 89.324966,176.663940 
	C88.782333,173.655182 89.131248,170.364746 87.655632,168.599319 
	C85.280945,165.758224 87.344849,164.419922 88.705460,161.809509 
M155.249725,159.409317 
	C153.786469,160.138626 152.323196,160.867920 149.983002,162.034302 
	C149.983002,157.800552 149.983002,154.884384 149.983002,151.962570 
	C147.388519,151.962570 145.307877,151.962570 143.166901,151.962570 
	C143.166901,160.438660 143.166901,168.644821 143.166901,176.718262 
	C145.622925,176.718262 147.709656,176.718262 150.138184,176.718262 
	C150.138184,173.487900 150.138184,170.540482 150.138184,167.518311 
	C152.012619,167.518311 153.529388,167.518311 155.451416,167.518311 
	C155.451416,170.841263 155.451416,173.782532 155.451416,176.664612 
	C158.103271,176.664612 160.337433,176.664612 162.531403,176.664612 
	C162.531403,168.224426 162.531403,160.135742 162.531403,152.114288 
	C159.997559,152.114288 157.778824,152.114288 155.268478,152.114288 
	C155.268478,154.507446 155.268478,156.486496 155.249725,159.409317 
M96.813538,163.225891 
	C95.649422,167.677414 94.485298,172.128937 93.073059,177.529251 
	C96.166252,176.888153 100.109032,177.043533 100.656677,175.755447 
	C101.804771,173.055084 103.338806,172.346085 105.482819,173.007217 
	C106.993225,173.472992 108.147873,175.092499 110.181038,176.801987 
	C111.297371,176.801987 113.579941,176.801987 116.206261,176.801987 
	C113.999191,168.377243 111.866470,160.236282 109.764229,152.211655 
	C100.038589,150.770416 100.039810,150.770737 97.757973,159.535858 
	C97.507309,160.498718 97.232666,161.455338 96.813538,163.225891 
M61.865482,166.626709 
	C60.760094,162.454285 59.880482,158.199402 58.405872,154.161819 
	C57.986649,153.013962 55.810600,151.799667 54.484253,151.847122 
	C52.140057,151.930954 48.201145,152.411453 47.773109,153.683044 
	C45.259796,161.149551 43.569180,168.892990 41.524727,176.840439 
	C44.233631,176.840439 46.360775,176.840439 48.850906,176.840439 
	C49.160946,172.386688 52.109211,172.343109 55.823334,173.203491 
	C56.424683,178.917877 60.591618,176.794510 64.368782,176.835434 
	C63.534660,173.502808 62.776382,170.473190 61.865482,166.626709 
M29.138254,161.254776 
	C28.099161,160.082458 27.060066,158.910126 26.020971,157.737808 
	C27.186773,157.703857 28.447927,157.367004 29.498896,157.697861 
	C31.818794,158.428131 34.032818,159.494751 36.870037,160.662979 
	C36.149418,152.711105 31.159773,149.621170 24.320995,151.453033 
	C20.936361,152.359650 18.636255,154.329178 18.377314,157.917252 
	C18.126633,161.390884 19.639181,163.997894 23.028831,165.334381 
	C24.872972,166.061493 26.839596,166.645630 28.442900,167.743973 
	C29.224833,168.279617 29.301207,169.845184 29.696953,170.944565 
	C28.525133,171.055664 27.244804,171.523956 26.202904,171.207397 
	C23.619593,170.422577 21.145222,169.279160 17.856060,167.973801 
	C19.290619,175.972290 23.168407,178.504135 30.016197,177.380112 
	C35.629772,176.458679 38.012085,173.303040 37.164761,168.124008 
	C36.475643,163.911972 33.128948,162.818863 29.138254,161.254776 
M125.043983,170.415283 
	C125.043983,172.518585 125.043983,174.621887 125.043983,176.786316 
	C127.717278,176.786316 129.811615,176.786316 132.340637,176.786316 
	C132.340637,170.491425 132.340637,164.406296 132.340637,158.197479 
	C134.335327,157.925476 135.917221,157.709778 137.518082,157.491470 
	C137.518082,155.468781 137.518082,153.752274 137.518082,152.067780 
	C131.449051,152.067780 125.722313,152.067780 120.065216,152.067780 
	C120.065216,154.051285 120.065216,155.669739 120.065216,157.531357 
	C121.794327,157.731918 123.331169,157.910187 125.043983,158.108856 
	C125.043983,162.150864 125.043983,165.795822 125.043983,170.415283 
M169.104996,165.491959 
	C169.104996,169.251007 169.104996,173.010040 169.104996,176.685944 
	C171.945572,176.685944 174.163269,176.685944 176.444550,176.685944 
	C176.444550,168.281647 176.444550,160.229614 176.444550,151.911499 
	C173.967606,151.911499 171.736298,151.911499 169.105026,151.911499 
	C169.105026,156.289474 169.105026,160.397934 169.104996,165.491959 
M126.326317,224.184418 
	C126.155228,222.082077 123.209091,220.013306 126.326080,217.776749 
	C126.630089,217.558624 126.142349,215.199539 125.528404,214.920532 
	C122.966202,213.756027 120.215332,213.006653 117.636826,212.139786 
	C117.636826,217.974411 117.636826,222.508148 117.636826,227.041901 
	C118.004013,227.050186 118.371201,227.058472 118.738388,227.066772 
	C119.073738,225.309937 119.409088,223.553101 119.744431,221.796265 
	C120.185463,221.544739 120.626488,221.293213 121.067513,221.041687 
	C122.104538,222.402847 123.110214,223.789627 124.191772,225.114441 
	C124.734932,225.779770 125.416130,226.332413 126.034889,226.936020 
	C126.187881,226.264160 126.340874,225.592285 126.326317,224.184418 
M92.851585,214.676804 
	C94.802551,214.676804 96.753517,214.676804 99.389359,214.676804 
	C99.389359,219.157333 99.389359,223.076706 99.389359,226.996078 
	C99.838966,226.993332 100.288582,226.990585 100.738190,226.987839 
	C100.738190,223.031937 100.738190,219.076050 100.738190,215.335373 
	C102.568619,214.749832 103.738594,214.375565 104.908569,214.001297 
	C104.872108,213.734238 104.835640,213.467194 104.799179,213.200134 
	C98.250710,213.200134 91.702240,213.200134 85.153770,213.200134 
	C85.107239,213.442596 85.060715,213.685059 85.014183,213.927521 
	C86.269745,214.390198 87.525307,214.852890 89.509369,215.584030 
	C89.509369,219.306976 89.509369,223.179672 89.509369,227.052368 
	C89.838974,227.025223 90.168579,226.998077 90.498192,226.970932 
	C90.999672,222.901947 91.501160,218.832977 92.851585,214.676804 
M165.377213,192.771362 
	C159.565048,194.048233 163.571533,187.843933 160.264130,186.355148 
	C160.264130,191.509491 160.264130,196.229660 160.264130,200.949814 
	C160.685822,200.981094 161.107529,201.012390 161.529221,201.043671 
	C161.782776,199.077469 162.036331,197.111252 162.325821,194.866379 
	C164.088654,194.969742 165.633469,195.060303 166.811539,195.129364 
	C167.316010,197.532806 167.695709,199.341721 168.075409,201.150635 
	C168.434677,201.062531 168.793961,200.974426 169.153229,200.886322 
	C169.153229,196.181931 169.153229,191.477539 169.153229,186.773148 
	C168.786804,186.747498 168.420395,186.721848 168.053970,186.696213 
	C167.441666,188.706497 166.829361,190.716782 165.377213,192.771362 
M78.105133,198.278244 
	C80.683548,198.837708 83.261963,199.397171 86.197464,200.034103 
	C85.083305,196.431686 83.815201,192.096649 82.269211,187.863113 
	C82.166550,187.581970 79.062729,187.730515 78.859756,188.258148 
	C77.294678,192.326538 76.101212,196.537888 74.792526,200.704926 
	C75.164238,200.896088 75.535957,201.087250 75.907669,201.278412 
	C76.520905,200.529984 77.134140,199.781570 78.105133,198.278244 
M105.969185,198.287735 
	C105.430840,193.504288 108.524696,195.000076 110.988861,195.133041 
	C111.279190,197.309402 111.535591,199.231415 111.791985,201.153442 
	C112.281540,201.107025 112.771095,201.060608 113.260651,201.014191 
	C113.260651,196.281342 113.260651,191.548492 113.260651,186.815643 
	C112.799538,186.752106 112.338432,186.688583 111.877319,186.625046 
	C111.572128,188.513733 111.266930,190.402420 110.925430,192.515808 
	C109.368286,192.515808 107.797325,192.515808 106.261230,192.515808 
	C105.979553,190.367081 105.734230,188.495728 105.488914,186.624359 
	C104.844452,186.668610 104.199997,186.712860 103.555534,186.757095 
	C103.555534,191.098526 103.521782,195.440643 103.610344,199.780273 
	C103.618736,200.191879 104.393761,200.587845 104.812859,200.991074 
	C105.196800,200.385971 105.580734,199.780869 105.969185,198.287735 
M84.570328,226.411331 
	C83.371796,222.459900 82.240196,218.485794 80.915947,214.576950 
	C80.663353,213.831375 79.686783,212.923080 78.976830,212.861038 
	C78.332413,212.804718 77.203728,213.663086 76.964912,214.352493 
	C75.549438,218.438828 74.330902,222.593384 72.676369,227.914154 
	C75.321808,225.975891 76.879997,223.922867 78.325645,223.999283 
	C80.254379,224.101227 82.095657,225.857666 84.570328,226.411331 
M108.936394,223.423752 
	C107.986565,218.733994 113.570206,222.353958 114.051834,219.442520 
	C108.935051,218.299194 108.935051,218.299194 109.675377,214.850693 
	C111.471237,214.690613 113.213867,214.535278 114.956497,214.379944 
	C114.912880,213.948380 114.869270,213.516800 114.825653,213.085220 
	C112.174255,213.085220 109.522858,213.085220 106.759117,213.085220 
	C106.759117,217.747101 106.759117,222.195847 106.759117,227.126892 
	C109.649948,226.977829 112.317780,226.840271 114.985619,226.702713 
	C114.978951,226.317474 114.972275,225.932251 114.965607,225.547012 
	C112.980980,225.140793 110.996361,224.734558 108.936394,223.423752 
M46.377922,188.689194 
	C47.609135,188.533920 48.840347,188.378647 50.071560,188.223373 
	C50.018093,187.833527 49.964630,187.443665 49.911167,187.053818 
	C47.371571,187.053818 44.831974,187.053818 42.098492,187.053818 
	C42.098492,191.641922 42.098492,196.192169 42.098492,200.576126 
	C44.961353,200.576126 47.554829,200.576126 50.148300,200.576126 
	C50.176552,200.191452 50.204803,199.806778 50.233059,199.422104 
	C48.293972,199.200623 46.354885,198.979141 44.090309,198.720474 
	C44.159023,197.392975 44.223141,196.154404 44.284252,194.973770 
	C46.199520,194.713470 47.822083,194.492935 49.444649,194.272415 
	C49.415035,193.912537 49.385422,193.552673 49.355812,193.192795 
	C47.663586,192.958023 45.971355,192.723267 43.437126,192.371689 
	C44.322128,190.817657 44.923176,189.762253 46.377922,188.689194 
M66.138985,220.373886 
	C63.869717,218.017883 61.600449,215.661896 59.331181,213.305908 
	C59.215092,218.065079 57.078091,222.770111 60.855068,226.845963 
	C60.855068,224.423691 60.855068,222.001434 60.855068,218.196579 
	C62.511753,221.418228 63.536839,223.411636 64.561928,225.405060 
	C65.015594,225.327362 65.469261,225.249649 65.922935,225.171951 
	C66.240898,223.678513 66.558861,222.185059 66.138985,220.373886 
M134.741486,215.074646 
	C135.492859,215.718262 136.244232,216.361862 136.995605,217.005463 
	C137.361481,216.445908 137.727356,215.886353 138.093231,215.326797 
	C136.296097,214.369919 134.546600,212.814987 132.685028,212.666672 
	C131.446243,212.567993 128.807480,214.764221 128.961990,215.431763 
	C129.362259,217.161026 130.628204,219.196564 132.146103,220.063309 
	C136.316940,222.444824 136.598099,223.051483 133.361038,226.173477 
	C134.968002,225.840363 137.539810,225.121063 137.565369,224.320465 
	C137.618088,222.669296 136.487579,220.858276 135.486099,219.350647 
	C135.033615,218.669479 133.575256,218.738190 132.847565,218.135498 
	C132.094513,217.511795 131.673889,216.486710 131.107849,215.637192 
	C132.088440,215.323776 133.069031,215.010361 134.741486,215.074646 
M73.984421,186.985794 
	C70.866417,186.985794 67.748405,186.985794 64.630402,186.985794 
	C72.145111,190.018631 65.427856,197.471848 70.275459,202.161774 
	C70.498344,198.867111 71.032677,196.535706 70.717216,194.325592 
	C70.245323,191.019638 71.364746,188.947037 73.984421,186.985794 
M124.674469,188.396637 
	C122.244492,187.654297 119.814507,186.911957 117.172928,186.104965 
	C116.201591,199.930145 116.337784,200.578262 119.850410,200.467331 
	C119.564293,198.700790 119.275513,196.917786 118.986298,195.132126 
	C121.151291,194.774185 122.785065,194.504074 124.418831,194.233963 
	C124.399139,193.900192 124.379448,193.566406 124.359749,193.232635 
	C122.691864,192.974548 121.023972,192.716461 119.291641,192.448410 
	C119.291641,191.193497 119.291641,190.107224 119.291641,188.650497 
	C120.964020,188.650497 122.421127,188.650497 124.674469,188.396637 
M38.836742,199.900833 
	C38.836742,195.646484 38.836742,191.392136 38.836742,186.887009 
	C34.612873,186.770737 33.973995,189.375046 34.346233,192.148727 
	C34.684120,194.666443 35.691032,197.116791 36.610153,199.517532 
	C36.826984,200.083908 37.875206,200.332001 38.836742,199.900833 
M88.116646,190.106522 
	C88.116646,193.697739 88.116646,197.288956 88.116646,201.287323 
	C91.344017,201.044693 93.860626,200.855499 96.377243,200.666306 
	C96.362434,200.249115 96.347626,199.831909 96.332809,199.414703 
	C94.509003,199.116287 92.685196,198.817871 90.283890,198.424973 
	C90.283890,194.388580 90.283890,190.581558 90.283890,186.774551 
	C89.861237,186.715561 89.438576,186.656570 89.015923,186.597565 
	C88.716309,187.487732 88.416695,188.377884 88.116646,190.106522 
M141.916473,195.359451 
	C141.916473,192.523087 141.916473,189.686722 141.916473,186.850357 
	C141.362961,186.853210 140.809433,186.856079 140.255920,186.858932 
	C140.255920,191.499573 140.255920,196.140228 140.255920,200.575027 
	C142.675568,200.575027 145.147568,200.575027 147.801910,200.575027 
	C146.688263,197.345093 141.233307,201.375885 141.916473,195.359451 
M151.885406,194.577637 
	C152.043091,196.747086 152.200775,198.916550 152.358444,201.086014 
	C152.853882,201.044327 153.349304,201.002640 153.844742,200.960968 
	C153.844742,197.052032 153.844742,193.143082 153.844742,189.394791 
	C155.473190,188.771545 156.674149,188.311905 157.875092,187.852280 
	C157.806747,187.657684 157.738388,187.463104 157.670029,187.268509 
	C154.507050,187.268509 151.344070,187.268509 148.181091,187.268509 
	C148.150543,187.547546 148.119980,187.826599 148.089432,188.105637 
	C149.282379,188.457489 150.475327,188.809357 151.885406,189.225250 
	C151.885406,190.668365 151.885406,192.155563 151.885406,194.577637 
M103.325806,91.806679 
	C104.283905,91.945488 105.550346,92.547722 106.150444,92.148460 
	C110.282837,89.398994 114.299858,86.472221 118.279121,83.502190 
	C118.702003,83.186554 118.641647,82.223480 119.095947,80.385696 
	C113.318428,84.440704 108.505188,87.818924 103.325806,91.806679 
M50.391079,17.075462 
	C51.135990,15.976604 51.880898,14.877747 53.328785,12.741887 
	C46.872272,15.724526 42.174240,23.567390 42.724369,29.687553 
	C45.326477,25.317272 47.625492,21.456045 50.391079,17.075462 
M28.744358,186.996384 
	C28.097843,186.978699 27.177683,186.676849 26.851042,186.991364 
	C25.229816,188.552444 25.835842,198.822769 27.864489,201.288788 
	C28.125294,198.082474 27.287809,194.066971 28.842741,192.616898 
	C31.174732,190.442184 29.638306,189.289078 28.744358,186.996384 
M68.983170,219.313889 
	C69.101440,221.874527 69.219711,224.435165 69.337982,226.995819 
	C69.806801,226.966049 70.275620,226.936279 70.744438,226.906494 
	C70.744438,222.285690 70.744438,217.664871 70.744438,213.044052 
	C70.324440,212.805191 69.904442,212.566315 69.484444,212.327438 
	C68.292397,214.410461 67.100349,216.493500 65.155701,219.891647 
	C67.389778,219.059937 68.082710,218.801971 68.983170,219.313889 
z"/>
<path fill="#054C5B" opacity="1.000000" stroke="none" 
	d="
M65.934784,16.689411 
	C76.191246,13.192736 84.165550,16.578426 90.500854,23.427277 
	C94.785568,20.863550 98.441231,17.678257 102.682137,16.319225 
	C117.491394,11.573477 131.379623,23.571692 130.480637,39.655342 
	C129.803787,51.764603 125.052368,62.084244 116.265266,70.077972 
	C109.917244,75.852829 102.625557,80.664558 95.388466,85.338768 
	C93.437447,86.598862 89.614937,86.822655 87.567924,85.758789 
	C77.321983,80.433823 67.987457,73.773911 60.888115,64.422127 
	C54.963696,56.618046 51.743423,47.890026 51.834538,38.023521 
	C51.926628,28.051199 56.286022,20.850128 65.934784,16.689411 
M101.870445,56.595932 
	C106.800140,55.565056 105.942055,51.651680 105.921341,48.263622 
	C105.889198,43.006321 101.480354,43.491997 98.123863,42.997528 
	C97.907654,38.984615 97.732750,35.516125 92.740417,35.254456 
	C86.492065,34.926960 85.792641,35.375210 83.487122,43.196430 
	C79.441261,43.077644 76.334534,44.006069 76.246452,49.078667 
	C76.147675,54.767418 76.866768,55.718483 84.195175,57.410286 
	C84.358299,60.865749 84.414101,64.510307 89.411613,64.733017 
	C94.173882,64.945236 98.234024,64.590820 98.133705,58.229057 
	C98.125877,57.732594 100.032791,57.205936 101.870445,56.595932 
z"/>
<path fill="#064D5C" opacity="1.000000" stroke="none" 
	d="
M31.146690,60.085304 
	C35.033722,60.508022 36.305542,62.776009 36.149231,66.002228 
	C35.797501,73.261589 35.346909,80.516121 34.964272,87.774071 
	C34.912128,88.763153 34.613163,90.103683 35.116879,90.699379 
	C38.820107,95.078873 42.698513,99.310234 46.521736,103.588257 
	C47.093227,103.031960 47.664719,102.475662 48.236210,101.919357 
	C45.306332,98.970055 42.424068,95.971329 39.431141,93.087448 
	C37.136742,90.876648 35.668106,88.489342 38.455475,85.859924 
	C41.112644,83.353325 43.538937,84.628494 45.794888,86.918892 
	C52.108257,93.328651 58.055286,100.207748 64.992706,105.864258 
	C72.136841,111.689301 72.970604,118.651604 71.555603,126.952370 
	C62.970291,126.952370 54.380428,126.952370 45.238228,126.952370 
	C46.956619,118.620193 40.245281,115.140717 35.545418,110.991058 
	C29.137321,105.333130 26.225597,99.131203 27.005707,90.495468 
	C27.722330,82.562515 26.906603,74.500732 27.323013,66.524780 
	C27.436880,64.343742 29.555372,62.267365 31.146690,60.085304 
z"/>
<path fill="#054C5B" opacity="1.000000" stroke="none" 
	d="
M155.000473,90.956566 
	C156.240845,99.236450 153.597183,105.366371 147.334671,110.142059 
	C145.234680,111.743484 143.628555,113.976562 141.625092,115.724174 
	C138.346893,118.583733 135.652817,121.605034 137.371933,126.793762 
	C128.192581,126.793762 119.481499,126.793762 110.527168,126.793762 
	C109.569969,119.231590 109.566177,112.405319 116.451302,106.674683 
	C123.589478,100.733406 129.801453,93.671112 136.339996,87.021896 
	C138.743500,84.577705 141.311844,83.219040 144.003143,86.111732 
	C146.603378,88.906578 144.702682,91.231895 142.513367,93.355072 
	C139.607849,96.172768 136.793533,99.084496 133.033112,102.868385 
	C141.436249,101.141373 147.091721,91.575195 146.290436,84.758896 
	C145.499084,78.027122 145.824951,71.110275 146.319778,64.322662 
	C146.429596,62.816303 149.301086,61.511272 150.900986,60.113541 
	C152.266586,61.903271 154.715500,63.637016 154.811417,65.492378 
	C155.240677,73.797623 154.999573,82.137512 155.000473,90.956566 
z"/>
<path fill="#0D5260" opacity="1.000000" stroke="none" 
	d="
M40.982849,141.725708 
	C40.852760,137.636063 40.852760,134.004333 40.852760,129.836746 
	C43.159370,129.697601 45.225590,129.475616 47.292866,129.465347 
	C55.584614,129.424118 63.878147,129.537323 72.167885,129.401855 
	C75.190041,129.352463 76.708519,129.994049 76.622383,133.493088 
	C76.332077,145.286926 77.699699,142.797165 67.213829,142.991959 
	C60.085209,143.124374 52.951546,143.065964 45.821514,142.979340 
	C44.249001,142.960236 42.682308,142.461502 40.982849,141.725708 
z"/>
<path fill="#0D5260" opacity="1.000000" stroke="none" 
	d="
M114.133682,129.448425 
	C122.244751,129.448669 129.873093,129.544357 137.496933,129.400314 
	C140.402298,129.345398 141.819977,130.119949 141.602722,133.292999 
	C141.391006,136.385010 141.556702,139.502823 141.556702,142.802124 
	C129.441345,142.802124 118.056610,142.802124 106.241188,142.802124 
	C106.241188,138.468216 106.241188,134.282486 106.241188,129.448334 
	C108.750519,129.448334 111.199837,129.448334 114.133682,129.448425 
z"/>
<path fill="#0F5462" opacity="1.000000" stroke="none" 
	d="
M88.534279,162.164581 
	C87.344849,164.419922 85.280945,165.758224 87.655632,168.599319 
	C89.131248,170.364746 88.782333,173.655182 89.324966,176.663940 
	C86.801651,176.663940 84.589897,176.663940 82.389175,176.663940 
	C80.475304,174.323502 83.233818,168.858383 77.105881,168.829086 
	C76.980064,171.570053 76.868042,174.010666 76.743179,176.730865 
	C74.352135,176.730865 72.120544,176.730865 69.644821,176.730865 
	C69.644821,168.526093 69.644821,160.431885 69.644821,151.971313 
	C74.132957,151.971313 78.596825,151.599518 82.969421,152.072098 
	C87.686150,152.581863 89.226051,155.636765 88.534279,162.164581 
M77.013329,162.807556 
	C78.386330,162.667191 80.048882,162.934128 81.027222,162.238632 
	C81.645882,161.798798 81.751923,159.520645 81.173920,158.790482 
	C80.408081,157.823029 78.749657,157.562164 76.865936,156.728012 
	C76.865936,159.148224 76.865936,160.586823 77.013329,162.807556 
z"/>
<path fill="#0B515F" opacity="1.000000" stroke="none" 
	d="
M155.259094,158.937439 
	C155.268478,156.486496 155.268478,154.507446 155.268478,152.114288 
	C157.778824,152.114288 159.997559,152.114288 162.531403,152.114288 
	C162.531403,160.135742 162.531403,168.224426 162.531403,176.664612 
	C160.337433,176.664612 158.103271,176.664612 155.451416,176.664612 
	C155.451416,173.782532 155.451416,170.841263 155.451416,167.518311 
	C153.529388,167.518311 152.012619,167.518311 150.138184,167.518311 
	C150.138184,170.540482 150.138184,173.487900 150.138184,176.718262 
	C147.709656,176.718262 145.622925,176.718262 143.166901,176.718262 
	C143.166901,168.644821 143.166901,160.438660 143.166901,151.962570 
	C145.307877,151.962570 147.388519,151.962570 149.983002,151.962570 
	C149.983002,154.884384 149.983002,157.800552 149.983002,162.034302 
	C152.323196,160.867920 153.786469,160.138626 155.259094,158.937439 
z"/>
<path fill="#0C5160" opacity="1.000000" stroke="none" 
	d="
M96.891342,162.820374 
	C97.232666,161.455338 97.507309,160.498718 97.757973,159.535858 
	C100.039810,150.770737 100.038589,150.770416 109.764229,152.211655 
	C111.866470,160.236282 113.999191,168.377243 116.206261,176.801987 
	C113.579941,176.801987 111.297371,176.801987 110.181038,176.801987 
	C108.147873,175.092499 106.993225,173.472992 105.482819,173.007217 
	C103.338806,172.346085 101.804771,173.055084 100.656677,175.755447 
	C100.109032,177.043533 96.166252,176.888153 93.073059,177.529251 
	C94.485298,172.128937 95.649422,167.677414 96.891342,162.820374 
z"/>
<path fill="#0C5260" opacity="1.000000" stroke="none" 
	d="
M61.941792,167.035141 
	C62.776382,170.473190 63.534660,173.502808 64.368782,176.835434 
	C60.591618,176.794510 56.424683,178.917877 55.823334,173.203491 
	C52.109211,172.343109 49.160946,172.386688 48.850906,176.840439 
	C46.360775,176.840439 44.233631,176.840439 41.524727,176.840439 
	C43.569180,168.892990 45.259796,161.149551 47.773109,153.683044 
	C48.201145,152.411453 52.140057,151.930954 54.484253,151.847122 
	C55.810600,151.799667 57.986649,153.013962 58.405872,154.161819 
	C59.880482,158.199402 60.760094,162.454285 61.941792,167.035141 
z"/>
<path fill="#0D5261" opacity="1.000000" stroke="none" 
	d="
M29.491186,161.422485 
	C33.128948,162.818863 36.475643,163.911972 37.164761,168.124008 
	C38.012085,173.303040 35.629772,176.458679 30.016197,177.380112 
	C23.168407,178.504135 19.290619,175.972290 17.856060,167.973801 
	C21.145222,169.279160 23.619593,170.422577 26.202904,171.207397 
	C27.244804,171.523956 28.525133,171.055664 29.696953,170.944565 
	C29.301207,169.845184 29.224833,168.279617 28.442900,167.743973 
	C26.839596,166.645630 24.872972,166.061493 23.028831,165.334381 
	C19.639181,163.997894 18.126633,161.390884 18.377314,157.917252 
	C18.636255,154.329178 20.936361,152.359650 24.320995,151.453033 
	C31.159773,149.621170 36.149418,152.711105 36.870037,160.662979 
	C34.032818,159.494751 31.818794,158.428131 29.498896,157.697861 
	C28.447927,157.367004 27.186773,157.703857 26.020971,157.737808 
	C27.060066,158.910126 28.099161,160.082458 29.491186,161.422485 
z"/>
<path fill="#084F5D" opacity="1.000000" stroke="none" 
	d="
M125.043983,169.928040 
	C125.043983,165.795822 125.043983,162.150864 125.043983,158.108856 
	C123.331169,157.910187 121.794327,157.731918 120.065216,157.531357 
	C120.065216,155.669739 120.065216,154.051285 120.065216,152.067780 
	C125.722313,152.067780 131.449051,152.067780 137.518082,152.067780 
	C137.518082,153.752274 137.518082,155.468781 137.518082,157.491470 
	C135.917221,157.709778 134.335327,157.925476 132.340637,158.197479 
	C132.340637,164.406296 132.340637,170.491425 132.340637,176.786316 
	C129.811615,176.786316 127.717278,176.786316 125.043983,176.786316 
	C125.043983,174.621887 125.043983,172.518585 125.043983,169.928040 
z"/>
<path fill="#165967" opacity="1.000000" stroke="none" 
	d="
M169.105011,164.999176 
	C169.105026,160.397934 169.105026,156.289474 169.105026,151.911499 
	C171.736298,151.911499 173.967606,151.911499 176.444550,151.911499 
	C176.444550,160.229614 176.444550,168.281647 176.444550,176.685944 
	C174.163269,176.685944 171.945572,176.685944 169.104996,176.685944 
	C169.104996,173.010040 169.104996,169.251007 169.105011,164.999176 
z"/>
<path fill="#1E2020" opacity="1.000000" stroke="none" 
	d="
M126.410095,224.552429 
	C126.340874,225.592285 126.187881,226.264160 126.034897,226.936020 
	C125.416130,226.332413 124.734932,225.779770 124.191772,225.114441 
	C123.110214,223.789627 122.104538,222.402847 121.067513,221.041687 
	C120.626488,221.293213 120.185463,221.544739 119.744431,221.796265 
	C119.409088,223.553101 119.073738,225.309937 118.738388,227.066772 
	C118.371201,227.058472 118.004013,227.050186 117.636826,227.041901 
	C117.636826,222.508148 117.636826,217.974411 117.636826,212.139786 
	C120.215332,213.006653 122.966202,213.756027 125.528404,214.920532 
	C126.142349,215.199539 126.630089,217.558624 126.326080,217.776749 
	C123.209091,220.013306 126.155228,222.082077 126.410095,224.552429 
z"/>
<path fill="#121313" opacity="1.000000" stroke="none" 
	d="
M92.427109,214.720398 
	C91.501160,218.832977 90.999672,222.901947 90.498192,226.970932 
	C90.168579,226.998077 89.838974,227.025223 89.509369,227.052368 
	C89.509369,223.179672 89.509369,219.306976 89.509369,215.584030 
	C87.525307,214.852890 86.269745,214.390198 85.014183,213.927521 
	C85.060715,213.685059 85.107239,213.442596 85.153770,213.200134 
	C91.702240,213.200134 98.250710,213.200134 104.799179,213.200134 
	C104.835640,213.467194 104.872108,213.734238 104.908569,214.001297 
	C103.738594,214.375565 102.568619,214.749832 100.738190,215.335373 
	C100.738190,219.076050 100.738190,223.031937 100.738190,226.987839 
	C100.288582,226.990585 99.838966,226.993332 99.389359,226.996078 
	C99.389359,223.076706 99.389359,219.157333 99.389359,214.676804 
	C96.753517,214.676804 94.802551,214.676804 92.427109,214.720398 
z"/>
<path fill="#202222" opacity="1.000000" stroke="none" 
	d="
M123.821213,200.868134 
	C125.218445,198.650558 126.731834,196.495255 127.967255,194.190918 
	C128.656296,192.905701 128.720428,191.292877 129.366592,189.974991 
	C129.947632,188.789917 130.938843,187.805954 131.749146,186.733276 
	C132.590790,187.745499 133.777344,188.629684 134.209473,189.793915 
	C135.511017,193.300400 136.518921,196.915878 137.943253,201.449951 
	C136.437607,200.646606 135.438065,200.455109 135.101685,199.877441 
	C133.156952,196.537674 131.182724,196.982117 128.785431,199.416367 
	C128.101089,200.111221 126.788445,200.187332 125.125000,200.414673 
	C124.264465,200.477493 124.042831,200.672806 123.821213,200.868134 
z"/>
<path fill="#2E3030" opacity="1.000000" stroke="none" 
	d="
M165.797134,192.749207 
	C166.829361,190.716782 167.441666,188.706497 168.053970,186.696213 
	C168.420395,186.721848 168.786804,186.747498 169.153229,186.773148 
	C169.153229,191.477539 169.153229,196.181931 169.153229,200.886322 
	C168.793961,200.974426 168.434677,201.062531 168.075409,201.150635 
	C167.695709,199.341721 167.316010,197.532806 166.811539,195.129364 
	C165.633469,195.060303 164.088654,194.969742 162.325821,194.866379 
	C162.036331,197.111252 161.782776,199.077469 161.529221,201.043671 
	C161.107529,201.012390 160.685822,200.981094 160.264130,200.949814 
	C160.264130,196.229660 160.264130,191.509491 160.264130,186.355148 
	C163.571533,187.843933 159.565048,194.048233 165.797134,192.749207 
z"/>
<path fill="#202222" opacity="1.000000" stroke="none" 
	d="
M77.926254,198.655701 
	C77.134140,199.781570 76.520905,200.529984 75.907669,201.278412 
	C75.535957,201.087250 75.164238,200.896088 74.792526,200.704926 
	C76.101212,196.537888 77.294678,192.326538 78.859756,188.258148 
	C79.062729,187.730515 82.166550,187.581970 82.269211,187.863113 
	C83.815201,192.096649 85.083305,196.431686 86.197464,200.034103 
	C83.261963,199.397171 80.683548,198.837708 77.926254,198.655701 
z"/>
<path fill="#2E3030" opacity="1.000000" stroke="none" 
	d="
M105.966934,198.731750 
	C105.580734,199.780869 105.196800,200.385971 104.812866,200.991074 
	C104.393761,200.587845 103.618736,200.191879 103.610344,199.780273 
	C103.521782,195.440643 103.555534,191.098526 103.555534,186.757095 
	C104.199997,186.712860 104.844452,186.668610 105.488914,186.624359 
	C105.734230,188.495728 105.979553,190.367081 106.261230,192.515808 
	C107.797325,192.515808 109.368286,192.515808 110.925430,192.515808 
	C111.266930,190.402420 111.572128,188.513733 111.877319,186.625046 
	C112.338432,186.688583 112.799538,186.752106 113.260651,186.815643 
	C113.260651,191.548492 113.260651,196.281342 113.260651,201.014191 
	C112.771095,201.060608 112.281540,201.107025 111.791985,201.153442 
	C111.535591,199.231415 111.279190,197.309402 110.988861,195.133041 
	C108.524696,195.000076 105.430840,193.504288 105.966934,198.731750 
z"/>
<path fill="#202222" opacity="1.000000" stroke="none" 
	d="
M84.272415,226.657410 
	C82.095657,225.857666 80.254379,224.101227 78.325645,223.999283 
	C76.879997,223.922867 75.321808,225.975891 72.676369,227.914154 
	C74.330902,222.593384 75.549438,218.438828 76.964912,214.352493 
	C77.203728,213.663086 78.332413,212.804718 78.976830,212.861038 
	C79.686783,212.923080 80.663353,213.831375 80.915947,214.576950 
	C82.240196,218.485794 83.371796,222.459900 84.272415,226.657410 
z"/>
<path fill="#1E2020" opacity="1.000000" stroke="none" 
	d="
M108.974068,223.876038 
	C110.996361,224.734558 112.980980,225.140793 114.965607,225.547012 
	C114.972275,225.932251 114.978951,226.317474 114.985619,226.702713 
	C112.317780,226.840271 109.649948,226.977829 106.759117,227.126892 
	C106.759117,222.195847 106.759117,217.747101 106.759117,213.085220 
	C109.522858,213.085220 112.174255,213.085220 114.825653,213.085220 
	C114.869270,213.516800 114.912880,213.948380 114.956497,214.379944 
	C113.213867,214.535278 111.471237,214.690613 109.675377,214.850693 
	C108.935051,218.299194 108.935051,218.299194 114.051834,219.442520 
	C113.570206,222.353958 107.986565,218.733994 108.974068,223.876038 
z"/>
<path fill="#171818" opacity="1.000000" stroke="none" 
	d="
M45.951073,188.698013 
	C44.923176,189.762253 44.322128,190.817657 43.437126,192.371689 
	C45.971355,192.723267 47.663586,192.958023 49.355812,193.192795 
	C49.385422,193.552673 49.415035,193.912537 49.444649,194.272415 
	C47.822083,194.492935 46.199520,194.713470 44.284252,194.973770 
	C44.223141,196.154404 44.159023,197.392975 44.090309,198.720474 
	C46.354885,198.979141 48.293972,199.200623 50.233059,199.422104 
	C50.204803,199.806778 50.176552,200.191452 50.148300,200.576126 
	C47.554829,200.576126 44.961353,200.576126 42.098492,200.576126 
	C42.098492,196.192169 42.098492,191.641922 42.098492,187.053818 
	C44.831974,187.053818 47.371571,187.053818 49.911167,187.053818 
	C49.964630,187.443665 50.018093,187.833527 50.071560,188.223373 
	C48.840347,188.378647 47.609135,188.533920 45.951073,188.698013 
z"/>
<path fill="#353838" opacity="1.000000" stroke="none" 
	d="
M66.507904,220.532745 
	C66.558861,222.185059 66.240898,223.678513 65.922935,225.171951 
	C65.469261,225.249649 65.015594,225.327362 64.561928,225.405060 
	C63.536839,223.411636 62.511753,221.418228 60.855068,218.196579 
	C60.855068,222.001434 60.855068,224.423691 60.855068,226.845963 
	C57.078091,222.770111 59.215092,218.065079 59.331181,213.305908 
	C61.600449,215.661896 63.869717,218.017883 66.507904,220.532745 
z"/>
<path fill="#232525" opacity="1.000000" stroke="none" 
	d="
M134.395554,214.885788 
	C133.069031,215.010361 132.088440,215.323776 131.107849,215.637192 
	C131.673889,216.486710 132.094513,217.511795 132.847565,218.135498 
	C133.575256,218.738190 135.033615,218.669479 135.486099,219.350647 
	C136.487579,220.858276 137.618088,222.669296 137.565369,224.320465 
	C137.539810,225.121063 134.968002,225.840363 133.361038,226.173477 
	C136.598099,223.051483 136.316940,222.444824 132.146103,220.063309 
	C130.628204,219.196564 129.362259,217.161026 128.961990,215.431763 
	C128.807480,214.764221 131.446243,212.567993 132.685028,212.666672 
	C134.546600,212.814987 136.296097,214.369919 138.093231,215.326797 
	C137.727356,215.886353 137.361481,216.445908 136.995605,217.005463 
	C136.244232,216.361862 135.492859,215.718262 134.395554,214.885788 
z"/>
<path fill="#3C3E3E" opacity="1.000000" stroke="none" 
	d="
M74.141075,187.320892 
	C71.364746,188.947037 70.245323,191.019638 70.717216,194.325592 
	C71.032677,196.535706 70.498344,198.867111 70.275459,202.161774 
	C65.427856,197.471848 72.145111,190.018631 64.630402,186.985794 
	C67.748405,186.985794 70.866417,186.985794 74.141075,187.320892 
z"/>
<path fill="#1E2020" opacity="1.000000" stroke="none" 
	d="
M58.821072,197.315735 
	C57.762157,195.709763 56.703243,194.103775 55.177605,191.789948 
	C54.970531,195.285599 54.800510,198.155716 54.630489,201.025833 
	C54.177155,201.017090 53.723820,201.008347 53.270485,200.999603 
	C53.270485,196.383087 53.270485,191.766571 53.270485,186.539368 
	C57.403763,188.042191 57.603268,192.565430 59.697136,195.807129 
	C59.263649,196.648056 59.042358,196.981888 58.821072,197.315735 
z"/>
<path fill="#171818" opacity="1.000000" stroke="none" 
	d="
M124.276352,188.523560 
	C122.421127,188.650497 120.964020,188.650497 119.291641,188.650497 
	C119.291641,190.107224 119.291641,191.193497 119.291641,192.448410 
	C121.023972,192.716461 122.691864,192.974548 124.359749,193.232635 
	C124.379448,193.566406 124.399139,193.900192 124.418831,194.233963 
	C122.785065,194.504074 121.151291,194.774185 118.986298,195.132126 
	C119.275513,196.917786 119.564293,198.700790 119.850410,200.467331 
	C116.337784,200.578262 116.201591,199.930145 117.172928,186.104965 
	C119.814507,186.911957 122.244492,187.654297 124.276352,188.523560 
z"/>
<path fill="#202222" opacity="1.000000" stroke="none" 
	d="
M38.688858,200.313660 
	C37.875206,200.332001 36.826984,200.083908 36.610153,199.517532 
	C35.691032,197.116791 34.684120,194.666443 34.346233,192.148727 
	C33.973995,189.375046 34.612873,186.770737 38.836742,186.887009 
	C38.836742,191.392136 38.836742,195.646484 38.688858,200.313660 
z"/>
<path fill="#353838" opacity="1.000000" stroke="none" 
	d="
M88.116867,189.687286 
	C88.416695,188.377884 88.716309,187.487732 89.015923,186.597565 
	C89.438576,186.656570 89.861237,186.715561 90.283890,186.774551 
	C90.283890,190.581558 90.283890,194.388580 90.283890,198.424973 
	C92.685196,198.817871 94.509003,199.116287 96.332809,199.414703 
	C96.347626,199.831909 96.362434,200.249115 96.377243,200.666306 
	C93.860626,200.855499 91.344017,201.044693 88.116646,201.287323 
	C88.116646,197.288956 88.116646,193.697739 88.116867,189.687286 
z"/>
<path fill="#1A1B1B" opacity="1.000000" stroke="none" 
	d="
M141.916702,195.825592 
	C141.233307,201.375885 146.688263,197.345093 147.801910,200.575027 
	C145.147568,200.575027 142.675568,200.575027 140.255920,200.575027 
	C140.255920,196.140228 140.255920,191.499573 140.255920,186.858932 
	C140.809433,186.856079 141.362961,186.853210 141.916473,186.850357 
	C141.916473,189.686722 141.916473,192.523087 141.916702,195.825592 
z"/>
<path fill="#161616" opacity="1.000000" stroke="none" 
	d="
M151.885406,194.110199 
	C151.885406,192.155563 151.885406,190.668365 151.885406,189.225250 
	C150.475327,188.809357 149.282379,188.457489 148.089432,188.105637 
	C148.119980,187.826599 148.150543,187.547546 148.181091,187.268509 
	C151.344070,187.268509 154.507050,187.268509 157.670029,187.268509 
	C157.738388,187.463104 157.806747,187.657684 157.875092,187.852280 
	C156.674149,188.311905 155.473190,188.771545 153.844742,189.394791 
	C153.844742,193.143082 153.844742,197.052032 153.844742,200.960968 
	C153.349304,201.002640 152.853882,201.044327 152.358444,201.086014 
	C152.200775,198.916550 152.043091,196.747086 151.885406,194.110199 
z"/>
<path fill="#1E5F6C" opacity="1.000000" stroke="none" 
	d="
M103.508873,91.501915 
	C108.505188,87.818924 113.318428,84.440704 119.095947,80.385696 
	C118.641647,82.223480 118.702003,83.186554 118.279121,83.502190 
	C114.299858,86.472221 110.282837,89.398994 106.150444,92.148460 
	C105.550346,92.547722 104.283905,91.945488 103.508873,91.501915 
z"/>
<path fill="#1D5E6C" opacity="1.000000" stroke="none" 
	d="
M50.157791,17.335140 
	C47.625492,21.456045 45.326477,25.317272 42.724369,29.687553 
	C42.174240,23.567390 46.872272,15.724526 53.328785,12.741887 
	C51.880898,14.877747 51.135990,15.976604 50.157791,17.335140 
z"/>
<path fill="#121313" opacity="1.000000" stroke="none" 
	d="
M28.999008,187.314331 
	C29.638306,189.289078 31.174732,190.442184 28.842741,192.616898 
	C27.287809,194.066971 28.125294,198.082474 27.864489,201.288788 
	C25.835842,198.822769 25.229816,188.552444 26.851042,186.991364 
	C27.177683,186.676849 28.097843,186.978699 28.999008,187.314331 
z"/>
<path fill="#0D0D0D" opacity="1.000000" stroke="none" 
	d="
M68.879402,218.928955 
	C68.082710,218.801971 67.389778,219.059937 65.155701,219.891647 
	C67.100349,216.493500 68.292397,214.410461 69.484444,212.327438 
	C69.904442,212.566315 70.324440,212.805191 70.744438,213.044052 
	C70.744438,217.664871 70.744438,222.285690 70.744438,226.906494 
	C70.275620,226.936279 69.806801,226.966049 69.337982,226.995819 
	C69.219711,224.435165 69.101440,221.874527 68.879402,218.928955 
z"/>
<path fill="#070707" opacity="1.000000" stroke="none" 
	d="
M58.898392,197.680511 
	C59.042358,196.981888 59.263649,196.648056 59.742287,196.157196 
	C60.491463,192.955887 60.983292,189.911606 61.475121,186.867310 
	C61.757565,186.845474 62.040012,186.823639 62.322456,186.801819 
	C62.322456,191.429123 62.322456,196.056427 62.322456,201.760574 
	C60.987144,200.278229 59.981430,199.161758 58.898392,197.680511 
z"/>
<path fill="#171818" opacity="1.000000" stroke="none" 
	d="
M124.013084,200.952271 
	C124.042831,200.672806 124.264465,200.477493 124.707512,200.454575 
	C124.774521,200.919174 124.533203,201.055664 124.013084,200.952271 
z"/>
<path fill="#C5DBDE" opacity="1.000000" stroke="none" 
	d="
M101.460114,56.644623 
	C100.032791,57.205936 98.125877,57.732594 98.133705,58.229057 
	C98.234024,64.590820 94.173882,64.945236 89.411613,64.733017 
	C84.414101,64.510307 84.358299,60.865749 84.195175,57.410286 
	C76.866768,55.718483 76.147675,54.767418 76.246452,49.078667 
	C76.334534,44.006069 79.441261,43.077644 83.487122,43.196430 
	C85.792641,35.375210 86.492065,34.926960 92.740417,35.254456 
	C97.732750,35.516125 97.907654,38.984615 98.123863,42.997528 
	C101.480354,43.491997 105.889198,43.006321 105.921341,48.263622 
	C105.942055,51.651680 106.800140,55.565056 101.460114,56.644623 
M103.222427,47.691959 
	C100.811256,46.796295 98.400085,45.900631 95.590485,44.856968 
	C95.371933,42.928425 95.101387,40.541023 94.841194,38.245010 
	C92.055962,38.245010 89.789009,38.245010 86.889359,38.245010 
	C88.570343,45.027992 85.333221,47.211533 79.406944,46.010845 
	C79.406944,49.023018 79.406944,51.392311 79.406944,54.362019 
	C86.827492,52.011292 87.778236,56.261929 87.051575,61.688339 
	C90.041122,61.688339 92.432487,61.688339 94.925911,61.688339 
	C95.196930,59.084728 95.433128,56.815647 95.688637,54.361084 
	C98.199600,54.139370 100.442169,53.941357 103.048019,53.711266 
	C103.131355,51.847084 103.203773,50.227100 103.222427,47.691959 
z"/>
<path fill="#D7E8EA" opacity="1.000000" stroke="none" 
	d="
M76.939636,162.416489 
	C76.865936,160.586823 76.865936,159.148224 76.865936,156.728012 
	C78.749657,157.562164 80.408081,157.823029 81.173920,158.790482 
	C81.751923,159.520645 81.645882,161.798798 81.027222,162.238632 
	C80.048882,162.934128 78.386330,162.667191 76.939636,162.416489 
z"/>
<path fill="#034B5A" opacity="1.000000" stroke="none" 
	d="
M103.249313,48.149536 
	C103.203773,50.227100 103.131355,51.847084 103.048019,53.711266 
	C100.442169,53.941357 98.199600,54.139370 95.688637,54.361084 
	C95.433128,56.815647 95.196930,59.084728 94.925911,61.688339 
	C92.432487,61.688339 90.041122,61.688339 87.051575,61.688339 
	C87.778236,56.261929 86.827492,52.011292 79.406944,54.362019 
	C79.406944,51.392311 79.406944,49.023018 79.406944,46.010845 
	C85.333221,47.211533 88.570343,45.027992 86.889359,38.245010 
	C89.789009,38.245010 92.055962,38.245010 94.841194,38.245010 
	C95.101387,40.541023 95.371933,42.928425 95.590485,44.856968 
	C98.400085,45.900631 100.811256,46.796295 103.249313,48.149536 
z"/>
</svg>